<svg width="28" height="32" viewBox="0 0 28 32" fill="none" xmlns="http://www.w3.org/2000/svg">
<path d="M25.6547 22.9573L25.4813 22.7413C24.1093 21.0066 22.9627 20.104 21.9787 19.9853C21.128 19.8693 20.3053 20.4573 19.4307 21.0626L18.496 21.6466C18.384 21.7026 18.2733 21.748 18.1693 21.7786C17.6227 21.9333 16.2427 22.024 15.4613 21.3093C14.552 20.4773 13.1413 18.9546 12.044 17.624C10.996 16.2466 9.84399 14.5293 9.24266 13.448C8.73466 12.532 9.15999 11.2506 9.44399 10.776C9.49999 10.6826 9.57332 10.5906 9.65466 10.5L10.4787 9.73865C10.4907 9.72665 10.496 9.71198 10.5067 9.70131C10.5147 9.69331 10.528 9.69598 10.5373 9.68931C11.2813 9.06131 12.0507 8.41465 12.156 7.58398C12.28 6.60798 11.6733 5.28798 10.2987 3.55465L10.1307 3.33865C9.27999 2.24798 7.99332 0.598646 6.14532 0.870646C5.41866 0.978646 4.76932 1.22665 4.09999 1.64665C4.09332 1.65065 4.08932 1.65865 4.08399 1.66265C4.07866 1.66665 4.07199 1.66665 4.06666 1.67065L3.13466 2.36131C3.12532 2.36665 3.11999 2.37865 3.11066 2.38665C3.10399 2.39331 3.09332 2.39465 3.08532 2.40131C2.97732 2.49198 2.86932 2.58531 2.76266 2.68131C1.81732 3.52398 -0.229344 5.97065 1.16666 10.496C2.06799 13.4186 3.92666 16.8293 6.55466 20.3786L6.52932 20.4L7.97866 22.2053L7.99066 22.196C10.84 25.5666 13.74 28.172 16.3973 29.7493C18.1707 30.8026 19.72 31.1506 20.9947 31.1506C22.672 31.1506 23.8733 30.548 24.476 30.156L24.8547 29.9026C24.8973 29.8733 24.928 29.832 24.9587 29.7946L25.784 29.1733C25.7933 29.1653 25.7987 29.1546 25.808 29.1466C25.812 29.1426 25.8187 29.144 25.824 29.14C26.4107 28.604 26.8173 28.0426 27.1 27.3773C27.832 25.672 26.5213 24.0386 25.6547 22.9573ZM26.12 26.9586C25.9 27.476 25.5787 27.916 25.1147 28.3426L23.8867 29.2666C22.7747 29.9893 20.3973 30.8826 16.944 28.832C14.2867 27.2546 11.3613 24.588 8.48266 21.12L7.70399 20.136C4.99332 16.5413 3.08666 13.0986 2.18666 10.1813C1.01732 6.38798 2.49066 4.35331 3.47732 3.47465C3.57732 3.38398 3.67732 3.29998 3.77599 3.21598L3.77999 3.21198L4.67466 2.54931C5.21866 2.20531 5.72266 2.01331 6.30266 1.92531C7.54132 1.73865 8.54932 3.04531 9.28932 3.99465L9.46266 4.21465C10.9987 6.15198 11.1467 7.07331 11.0987 7.44931C11.0453 7.86665 10.4107 8.40131 9.85066 8.87198L9.77199 8.93865C9.76932 8.94131 9.76799 8.94531 9.76532 8.94798C9.76132 8.95065 9.75732 8.95198 9.75332 8.95465L8.90132 9.74265C8.89599 9.74798 8.89332 9.75465 8.88799 9.76131C8.88266 9.76798 8.87199 9.77065 8.86666 9.77731C8.73466 9.92531 8.62132 10.0733 8.52932 10.2266C8.05066 11.028 7.59866 12.684 8.31199 13.9653C8.93466 15.0853 10.12 16.8546 11.2093 18.284C12.348 19.6653 13.8 21.2333 14.7413 22.0933C15.4467 22.7373 16.428 22.9533 17.2773 22.9533C17.732 22.9533 18.1493 22.8906 18.4653 22.8013C18.632 22.7533 18.804 22.684 18.9813 22.5973C18.992 22.592 18.9973 22.5826 19.008 22.576C19.0133 22.5733 19.0213 22.5746 19.0267 22.5706L20.016 21.952C20.048 21.9306 20.0693 21.9026 20.096 21.876L20.108 21.8893C20.7173 21.4666 21.412 20.9706 21.8467 21.0426C22.232 21.0893 23.1067 21.46 24.6453 23.4026L24.8227 23.6253C25.572 24.56 26.5987 25.84 26.12 26.9586Z" fill="white"/>
</svg>
